External Loads File
version=1
nRows=54
nColumns=13
Range=5.000000e-03-10 seconds
endheader
time 	forceRightX 	forceRightY 	forceRightZ 	pointRightX 	pointRightY 	pointRightZ 	forceLeftX 	forceLeftY 	forceLeftZ 	pointLeftX 	pointLeftY 	pointLeftZ 		
5.005000 -29.006558 139.602869 -0.000000 0.290648 0.487650 -0.164447 152.253807 207.096932 -0.000000 0.148770 0.169604 -0.398811
5.010000 -29.072067 165.455379 -0.000000 0.297071 0.481601 -0.163740 141.193685 165.408390 -0.000000 0.141722 0.175176 -0.398738
5.015000 -30.961046 194.379451 -0.000000 0.303278 0.474870 -0.162941 129.729815 127.278716 -0.000000 0.134995 0.181259 -0.398835
5.020000 -34.794551 225.904703 -0.000000 0.309061 0.467317 -0.162019 118.471179 93.610644 -0.000000 0.128584 0.187832 -0.398878
5.025000 -40.034165 259.303472 -0.000000 0.315113 0.459093 -0.161173 108.081934 64.735053 -0.000000 0.122467 0.194928 -0.398959
5.030000 -46.705062 293.510719 -0.000000 0.321181 0.450467 -0.161085 98.724965 41.000764 -0.000000 0.116710 0.202389 -0.399080
5.035000 -54.924339 327.344566 -0.000000 0.326716 0.441521 -0.160851 90.530133 22.407089 -0.000000 0.111359 0.210227 -0.399185
5.040000 -63.938733 359.818488 -0.000000 0.331740 0.431936 -0.160413 83.610402 8.497026 -0.000000 0.106476 0.218526 -0.399332
5.045000 -72.612359 390.252606 -0.000000 0.336648 0.421425 -0.160209 77.908652 -1.302563 -0.000000 0.102101 0.227118 -0.399493
5.050000 -81.509997 418.019381 -0.000000 0.341538 0.411362 -0.160369 73.315932 -7.291199 -0.000000 0.098157 0.236031 -0.399707
5.055000 -90.449950 442.983596 -0.000000 0.345449 0.401092 -0.160098 69.768666 -10.072120 -0.000000 0.094679 0.245271 -0.399951
5.060000 -98.508635 465.442293 -0.000000 0.349206 0.390568 -0.160035 67.178603 -10.420144 -0.000000 0.091739 0.254702 -0.400206
5.065000 -105.485987 485.748700 -0.000000 0.352558 0.379753 -0.160039 65.463399 -8.982976 -0.000000 0.089468 0.264398 -0.400332
5.070000 -111.090653 504.414947 -0.000000 0.355495 0.368824 -0.160008 64.509893 -6.375497 -0.000000 0.087581 0.274384 -0.400418
5.075000 -115.395276 521.928022 -0.000000 0.357984 0.357787 -0.159825 64.132869 -3.076878 -0.000000 0.086199 0.284517 -0.400368
5.080000 -117.882361 538.849561 -0.000000 0.359869 0.346498 -0.159607 64.055401 0.482863 -0.000000 0.084872 0.294693 -0.399583
5.085000 -118.583555 555.474584 -0.000000 0.361231 0.335277 -0.159416 63.967321 4.064307 -0.000000 0.084641 0.305172 -0.399560
5.090000 -117.375843 571.946899 -0.000000 0.361995 0.324191 -0.159206 63.579889 7.511871 -0.000000 0.084999 0.315734 -0.399630
5.095000 -113.439901 588.360302 -0.000000 0.362178 0.313091 -0.158966 62.686959 10.680458 -0.000000 0.085763 0.326416 -0.399477
5.100000 -106.544849 604.470706 -0.000000 0.361718 0.301950 -0.158624 61.170075 13.525713 -0.000000 0.087151 0.337100 -0.399435
5.105000 -96.106563 619.860959 -0.000000 0.360640 0.290885 -0.158308 59.016919 15.921104 -0.000000 0.089129 0.347998 -0.399284
5.110000 -82.219746 633.789269 -0.000000 0.359244 0.280000 -0.157587 56.280451 17.725933 -0.000000 0.091612 0.359178 -0.399161
5.115000 -67.541465 645.146715 -0.000000 0.356799 0.269563 -0.157891 52.976630 18.932844 -0.000000 0.094686 0.369473 -0.399049
5.120000 -49.772414 653.465763 -0.000000 0.354005 0.259391 -0.157856 49.304142 19.026476 -0.000000 0.098338 0.380013 -0.398914
5.125000 -29.863298 657.936117 -0.000000 0.350546 0.249363 -0.157750 45.411089 17.738418 -0.000000 0.102474 0.390345 -0.398815
5.130000 -8.635570 658.025951 -0.000000 0.346520 0.239756 -0.157490 41.421148 14.801156 -0.000000 0.107002 0.400717 -0.398801
5.135000 13.396672 653.505326 -0.000000 0.341983 0.230272 -0.157275 37.360925 10.030779 -0.000000 0.112079 0.410857 -0.398723
5.140000 34.923748 644.437177 -0.000000 0.336764 0.221111 -0.157381 33.132520 3.469670 -0.000000 0.117420 0.420683 -0.398742
5.145000 55.334854 631.173623 -0.000000 0.331046 0.212333 -0.157027 28.602490 -4.655083 -0.000000 0.123164 0.430239 -0.398735
5.150000 73.860464 614.333886 -0.000000 0.324833 0.204077 -0.156866 23.633956 -13.878013 -0.000000 0.129330 0.439381 -0.398756
5.155000 91.127524 594.551768 -0.000000 0.318144 0.196262 -0.156766 18.077800 -23.585833 -0.000000 0.136285 0.448237 -0.399153
5.160000 105.577089 572.874252 -0.000000 0.310963 0.188922 -0.156625 11.926969 -32.940455 -0.000000 0.143430 0.456340 -0.398842
5.165000 117.488380 550.207893 -0.000000 0.303344 0.182149 -0.156420 5.269237 -41.122840 -0.000000 0.150618 0.464215 -0.398498
5.170000 127.473948 527.358005 -0.000000 0.295264 0.175992 -0.156315 -1.741997 -47.328165 -0.000000 0.158369 0.471322 -0.398534
5.175000 135.287227 505.267659 -0.000000 0.286745 0.170313 -0.156111 -8.826979 -50.813679 -0.000000 0.166152 0.477762 -0.398137
5.180000 142.309786 484.355530 -0.000000 0.277808 0.165109 -0.155956 -15.818136 -50.990986 -0.000000 0.174571 0.483692 -0.398150
5.185000 148.144102 465.308346 -0.000000 0.268563 0.160627 -0.155694 -22.339739 -47.597051 -0.000000 0.183279 0.488795 -0.398160
5.190000 153.237012 448.331356 -0.000000 0.258976 0.156736 -0.155404 -28.098174 -40.681652 -0.000000 0.192079 0.493246 -0.398208
5.195000 157.844009 433.387123 -0.000000 0.249181 0.153446 -0.155192 -32.825890 -30.564106 -0.000000 0.200965 0.497095 -0.398122
5.200000 162.536149 419.982176 -0.000000 0.239093 0.150994 -0.154941 -36.349432 -17.757799 -0.000000 0.210116 0.499865 -0.398029
5.205000 166.794344 407.686102 -0.000000 0.229177 0.148978 -0.155026 -38.540338 -3.046153 -0.000000 0.219306 0.502131 -0.397901
5.210000 170.916530 395.471147 -0.000000 0.219035 0.147874 -0.154998 -39.451236 12.752050 -0.000000 0.228371 0.503702 -0.397912
5.215000 174.303337 382.508558 -0.000000 0.209006 0.147481 -0.154694 -39.279868 28.737114 -0.000000 0.237136 0.504436 -0.398010
5.220000 177.097250 367.649389 -0.000000 0.198994 0.147887 -0.154777 -38.332410 44.209026 -0.000000 0.245791 0.504441 -0.398055
5.225000 178.691075 350.256088 -0.000000 0.189127 0.149249 -0.154992 -37.060256 58.666967 -0.000000 0.254042 0.503683 -0.398217
5.230000 178.769274 329.861630 -0.000000 0.179550 0.151171 -0.155167 -35.959676 72.012302 -0.000000 0.261966 0.502013 -0.398438
5.235000 176.903536 306.395461 -0.000000 0.170439 0.153801 -0.155261 -35.570033 84.466721 -0.000000 0.269467 0.499550 -0.398777
5.240000 173.122120 279.859009 -0.000000 0.161709 0.157123 -0.155176 -36.299614 96.502529 -0.000000 0.276656 0.496219 -0.399165
5.245000 167.224298 250.732532 -0.000000 0.153430 0.161090 -0.155199 -38.592198 108.664306 -0.000000 0.283414 0.491922 -0.399483
5.250000 159.605887 219.489424 -0.000000 0.145448 0.165896 -0.155923 -42.659906 121.646473 -0.000000 0.290124 0.486949 -0.400071
5.255000 150.104651 187.334159 -0.000000 0.138123 0.171452 -0.156305 -49.001610 136.063671 -0.000000 0.296359 0.481151 -0.400566
5.260000 139.308905 155.198816 -0.000000 0.131201 0.177297 -0.156561 -57.754070 152.583336 -0.000000 0.302367 0.474678 -0.401285
5.265000 127.760108 124.126911 -0.000000 0.124714 0.183803 -0.156736 -68.943593 171.704127 -0.000000 0.307975 0.467470 -0.401642
5.270000 116.041658 95.056260 -0.000000 0.118647 0.190734 -0.156861 -82.332796 193.643536 -0.000000 0.313467 0.459578 -0.402005
